<?xml version="1.0"?>
<svg xmlns="http://www.w3.org/2000/svg" viewBox="0 0 512 512" width="512" height="512"><g id="Outline"><path d="M260.569,207.028l26.957-13.847L368,244.392V424h16V360.44l56.845,131.138a8,8,0,0,0,11.271,3.282l40-24a8,8,0,0,0,3.645-8.8L427.252,233.368A39.941,39.941,0,0,0,409.6,210.831L380.116,193.14,344,171.47v-6.6a31.8,31.8,0,0,0,16-27.7V112a32.025,32.025,0,0,0-17.38-28.45c-.077-.115-.137-.239-.22-.35L304,32a40.178,40.178,0,0,0-32-16H240a40.175,40.175,0,0,0-32,16L169.6,83.2c-.083.111-.143.235-.22.35A32.025,32.025,0,0,0,152,112v25.166a32,32,0,0,0,17.689,28.623l38.1,19.047L144,225.427v-20.9l28.116-16.868-8.232-13.72-32,19.2,0,0L102.4,210.831a39.943,39.943,0,0,0-17.65,22.537L16.239,462.06a8,8,0,0,0,3.645,8.8l40,24a8,8,0,0,0,11.271-3.282L128,360.44V488a8,8,0,0,0,8,8H376a8,8,0,0,0,8-8V448a8,8,0,0,0-8-8H352V424a8,8,0,0,0-3-6.246l-5.458-4.367C322.568,396.607,312,370.858,312,344a8,8,0,0,0-8-8H208a7.968,7.968,0,0,0-8,7.918,91.423,91.423,0,0,1-34.479,71.82L163,417.753A8,8,0,0,0,160,424v16H144V244.392l80.474-51.211,26.957,13.847A10,10,0,0,0,260.569,207.028ZM60.708,476.7,33.2,460.19l4.143-16.575,31.925,15.963ZM75.879,445l-34.24-17.121,58.4-189.8a23.962,23.962,0,0,1,10.59-13.522L128,214.129V318.417ZM368,480H144V456H368ZM176,427.843A107.26,107.26,0,0,0,215.708,352h80.584A107.262,107.262,0,0,0,336,427.843V440H176ZM208,96h96v38.059a15.9,15.9,0,0,1-4.686,11.314L256,188.687l-43.314-43.314A15.9,15.9,0,0,1,208,134.059Zm136,41.167a15.912,15.912,0,0,1-8.845,14.311L296.516,170.8l14.111-14.111A31.791,31.791,0,0,0,320,134.059V96h8a16.019,16.019,0,0,1,16,16ZM220.8,41.6A24.1,24.1,0,0,1,240,32h32a24.1,24.1,0,0,1,19.2,9.6L296,48H280V64h28l12,16H264V48H248V80H192ZM168,137.167V112a16.019,16.019,0,0,1,16-16h8v38.059a31.791,31.791,0,0,0,9.373,22.627L215.484,170.8l-38.639-19.319A15.912,15.912,0,0,1,168,137.167Zm136.215,47.669,23.859-11.929a16.1,16.1,0,0,0,7.69,12.283L368,204.53v20.9ZM384,214.129l17.369,10.422a23.96,23.96,0,0,1,10.591,13.522l58.4,189.8L436.121,445,384,318.417ZM451.292,476.7l-8.559-17.117,31.925-15.963L478.8,460.19Z"/><path d="M272,216v23.015a276.167,276.167,0,0,0,8.239,66.925l15.522-3.88A260.163,260.163,0,0,1,288,239.015V216Z"/><rect x="224" y="216" width="16" height="88"/></g></svg>
