<svg id="Capa_1" enable-background="new 0 0 512 512" height="512" viewBox="0 0 512 512" width="512" xmlns="http://www.w3.org/2000/svg"><g><g id="XMLID_1_"><path d="m356.33 373.407c0 21.13 17.13 38.26 38.26 38.26l-5.72-76.67h-32.54zm-180.82-326.9c4.75 14.25 18.03 23.83 33.06 23.83 8.66 0 16.8-3.38 22.93-9.5 6.13-6.13 9.5-13.36 9.5-30.84h-71.32zm-58.1 365.16c21.13 0 38.26-17.13 38.26-38.26v-38.41h-32.54zm359.1-250.19.17 173.52h-57.73l13.21 177h-352.32l13.21-177h-57.73l.19-174.25c2.01-40.68 18.64-79.28 46.84-108.69l.22-.22 51.83-51.84h243.2l52.05 52.06c28.19 29.41 44.83 68.01 46.84 108.69zm-29.86 143.52-.14-143.12c-1.73-33.29-15.36-64.86-38.41-88.94l-36.3-36.31-6.9 19.51c-8.88 26.44-33.56 44.2-61.47 44.2-11.62 0-22.75-3.17-32.43-9.07v390.73h128.84l-3.01-40.33c-38.93 0-70.5-31.56-70.5-70.5v-66.17h60.3l-10.95-146.66h30.09l10.94 146.66zm-110.07-258.74 5.74-16.26h-71.32c0 17.94 3.37 24.71 9.5 30.84 6.13 6.12 14.27 9.5 22.93 9.5 9.39 0 18.09-3.74 24.47-10.03.96-.93 1.86-1.94 2.71-2.99.57-.71 1.1-1.43 1.61-2.18s.99-1.52 1.45-2.31c1.13-1.98 2.08-4.09 2.82-6.32zm-95.58 435.74v-115h-25.67v-30h25.67v-55.33h-25.67v-30h25.67v-55.33h-25.67v-30h25.67v-75.07c-9.68 5.9-20.81 9.07-32.43 9.07-27.91 0-52.59-17.76-61.47-44.2l-6.9-19.51-36.3 36.31h-.01c-2.88 3.01-5.61 6.14-8.19 9.37-1.94 2.43-3.79 4.91-5.55 7.45-1.18 1.69-2.32 3.41-3.41 5.15-1.1 1.74-2.16 3.5-3.17 5.29-10.68 18.73-16.94 39.83-18.08 61.68l-.14 143.12h29.94l10.94-146.66h30.09l-10.95 146.66h60.3v66.17c0 19.47-7.89 37.09-20.65 49.85s-30.38 20.65-49.85 20.65l-3.01 40.33z"/></g></g></svg>