<?xml version="1.0"?>
<svg xmlns="http://www.w3.org/2000/svg" id="outline" viewBox="0 0 512 512" width="512" height="512"><path d="M128,328v55.167a56.78892,56.78892,0,0,0,24,46.34571V496h16V437.45447A56.64168,56.64168,0,0,0,184.833,440c1.51611,0,3.02856-.06628,4.53552-.18689A150.3822,150.3822,0,0,0,271.2666,464H328a55.80931,55.80931,0,0,0,16-2.34131V496h16V453.91663A55.96448,55.96448,0,0,0,384,408V328a48.05436,48.05436,0,0,0-48-48H292.65009A39.76008,39.76008,0,0,0,296,264V228.94434l3.37842-1.689A22.833,22.833,0,0,0,289.167,184H256a40.04521,40.04521,0,0,0-40,40v40a39.76008,39.76008,0,0,0,3.34991,16H176A48.05436,48.05436,0,0,0,128,328Zm16,55.167V328a32.036,32.036,0,0,1,32-32h56v-.02185a40.02316,40.02316,0,0,0,8.02509,4.68323l-21.68183,21.68188,11.31348,11.31348,8.15173-8.15161,1.80872,3.61743L233.44153,360H200V336H184v32a7.99977,7.99977,0,0,0,8,8h72v26.04773l-67.43408,20.2301A40.83243,40.83243,0,0,1,144,383.167ZM280,376h16a16.01833,16.01833,0,0,1,16,16v8H280Zm-25.44153-40h2.88306l4.8,24h-12.483Zm4.49744-16h-6.11182l-3.21008-6.42017L256,307.314l6.266,6.26587ZM256,288a24.02687,24.02687,0,0,1-24-24V251.31348L251.31348,232H280v32A24.02687,24.02687,0,0,1,256,288Zm112,40v80a40.04521,40.04521,0,0,1-40,40H271.2666a134.41639,134.41639,0,0,1-59.16345-13.67883L273.17432,416H320a7.99977,7.99977,0,0,0,8-8V336H312v28.30493A31.794,31.794,0,0,0,296,360H278.55847l-6.17566-30.87744,1.80872-3.61743,8.15173,8.15161,11.31348-11.31348-21.68183-21.68188A40.02316,40.02316,0,0,0,280,295.97815V296h56A32.036,32.036,0,0,1,368,328ZM256,200h33.167a6.83293,6.83293,0,0,1,3.05615,12.94434L286.11182,216H248a7.99877,7.99877,0,0,0-5.65674,2.34326L232,228.68652V224A24.02687,24.02687,0,0,1,256,200Z"/><path d="M272,72v96h16V80h16a7.99981,7.99981,0,0,0,5.65674-13.65674l-48-48a8,8,0,0,0-11.31348,0l-48,48A7.99981,7.99981,0,0,0,208,80h16v88h16V72a7.99977,7.99977,0,0,0-8-8h-4.68652L256,35.31348,284.68652,64H280A7.99977,7.99977,0,0,0,272,72Z"/><path d="M120,312V296H104a48.05436,48.05436,0,0,1-48-48V160a7.99977,7.99977,0,0,0-8-8H43.314L72,123.314,100.686,152H96a7.99977,7.99977,0,0,0-8,8v80a24.0275,24.0275,0,0,0,24,24h88V248H112a8.00917,8.00917,0,0,1-8-8V168h16a7.99981,7.99981,0,0,0,5.65674-13.65674l-48-48a8,8,0,0,0-11.31348,0l-48,48A7.99981,7.99981,0,0,0,24,168H40v80a64.0727,64.0727,0,0,0,64,64Z"/><path d="M445.65674,106.34326a8,8,0,0,0-11.31348,0l-48,48A7.99981,7.99981,0,0,0,392,168h16v72a8.00917,8.00917,0,0,1-8,8H312v16h88a24.0275,24.0275,0,0,0,24-24V160a7.99977,7.99977,0,0,0-8-8h-4.686L440,123.314,468.686,152H464a7.99977,7.99977,0,0,0-8,8v88a48.05436,48.05436,0,0,1-48,48H392v16h16a64.0727,64.0727,0,0,0,64-64V168h16a7.99981,7.99981,0,0,0,5.65674-13.65674Z"/></svg>
